<svg width="169" height="83" viewBox="0 0 169 83" fill="none" xmlns="http://www.w3.org/2000/svg">
<path d="M155.209 1.07568H13.8634C6.8412 1.07568 1.14844 6.76844 1.14844 13.7907V68.8585C1.14844 75.8808 6.8412 81.5735 13.8634 81.5735H155.209C162.231 81.5735 167.924 75.8808 167.924 68.8585V13.7907C167.924 6.76844 162.231 1.07568 155.209 1.07568ZM13.8634 3.22704H142.74V41.9704H3.29979V13.7907C3.29979 7.96532 8.03808 3.23083 13.8596 3.23083M3.29979 68.8585V44.1217H142.74V79.4222H13.8634C8.03808 79.4222 3.30358 74.6839 3.30358 68.8585M165.773 68.8585C165.773 74.6839 161.034 79.4222 155.209 79.4222H144.892V3.22704H155.209C161.034 3.22704 165.773 7.96533 165.773 13.7869V68.8585Z" fill="#404040"/>
<path d="M18.0601 31.9182C13.7801 31.9182 10.3789 28.445 10.2008 24.8316C10.1289 23.6385 10.2008 21.3243 12.0606 18.8662C14.0604 20.6918 15.4656 21.8849 15.4656 21.8849C15.4656 21.8849 14.4467 23.2522 14.7649 24.8316C15.0111 26.0588 16.2724 27.2519 17.8859 27.2519H31.9189C33.1802 27.2519 33.9188 26.5133 33.9188 25.146V9.18506H38.6912V23.8506C38.6912 25.9187 39.9183 27.2519 42.0583 27.2519H44.3726V31.9182H42.3386C39.8464 31.9182 38.3389 30.8312 37.392 29.6381C36.4792 30.8994 34.9376 31.9182 32.3053 31.9182H18.0601ZM26.0936 20.0971C27.0405 20.0971 28.4798 19.6767 29.0744 18.4116L27.3549 16.8322C27.0746 17.4988 26.3019 17.4307 26.2337 17.4307H23.9536V16.2717C23.9536 15.499 24.1278 14.8665 24.8664 14.8665C25.2528 14.8665 25.7792 15.0786 25.8133 15.8134H28.3737C28.1995 13.359 27.0405 12.2682 24.8664 12.2682C22.3742 12.2682 21.3932 14.1998 21.3932 16.2679V17.4269H19.988L19.1812 20.0933H26.0936V20.0971Z" fill="#606060"/>
<path d="M50.4445 27.252H44.0586V31.9183H50.4445V27.252Z" fill="#606060"/>
<path d="M54.163 13.2564H49.3906V9.18848H54.163V13.2564ZM50.1292 31.9179V27.2515H53.6024C55.4281 27.2515 56.409 26.4448 56.409 24.4449V17.3924H61.1435V23.8465C61.1435 25.9145 62.4048 27.2477 64.5107 27.2477H66.8628V31.9141H64.7948C62.2344 31.9141 60.689 30.721 59.78 29.4597C58.9392 30.9331 57.1135 31.9141 54.9395 31.9141H50.133L50.1292 31.9179ZM61.1094 13.2564H56.3371V9.18848H61.1094V13.2564Z" fill="#606060"/>
<path d="M72.9308 27.252H66.5449V31.9183H72.9308V27.252Z" fill="#606060"/>
<path d="M74.5776 23.1838C74.6836 17.7827 79.3121 15.3965 83.5239 15.3965C89.9098 15.3965 95.345 20.5514 95.345 27.2555V31.9218H72.752V27.2555H90.5726C90.6067 22.9035 87.9061 19.6083 83.5201 19.6083C81.168 19.6083 79.2401 20.5893 79.028 23.1876H74.5738L74.5776 23.1838Z" fill="#606060"/>
<path d="M103.451 33.3575C104.258 33.6037 105.379 33.8499 106.504 33.8499C107.239 33.8499 109.837 33.884 110.678 31.922H108.045C103.345 31.922 99.7656 28.4147 99.7656 23.9226C99.7656 19.4306 102.993 16.3096 108.045 16.3096H115.658V27.2557H120.779V31.922H115.552C114.92 36.6565 110.5 38.0277 107.133 37.9216C106.292 37.8875 105.307 37.7095 104.678 37.5353L103.451 33.3613V33.3575ZM110.89 20.5176H107.909C105.841 20.5176 104.648 22.3053 104.648 23.9189C104.648 25.6725 105.841 27.2519 107.909 27.2519H110.89V20.5176Z" fill="#606060"/>
<path d="M126.855 27.252H120.469V31.9183H126.855V27.252Z" fill="#606060"/>
<path d="M126.676 31.9182V27.2519H130.816C132.077 27.2519 132.85 26.5171 132.85 25.146V9.18506H137.588V24.8657C137.588 26.8656 137.13 31.9182 131.236 31.9182H126.676Z" fill="#606060"/>
<path d="M9.96094 74.2976V49.2085H15.059V70.8167H20.9185V74.2976H9.96094Z" fill="#606060"/>
<path d="M36.9068 74.6307C35.5433 74.6307 34.3843 74.4451 33.426 74.0777C32.4678 73.7103 31.7027 73.1611 31.1345 72.4301C30.5664 71.6991 30.1498 70.8393 29.8922 69.8507C29.6346 68.8621 29.5059 67.6956 29.5059 66.3548V57.0941C29.5059 55.7533 29.6346 54.5905 29.8922 53.6057C30.1498 52.6209 30.5626 51.7725 31.1345 51.0566C31.7027 50.3408 32.4678 49.7992 33.426 49.4356C34.3843 49.0719 35.5433 48.8901 36.9068 48.8901C39.5619 48.8901 41.4633 49.5795 42.6185 50.962C43.7737 52.3444 44.3495 54.3859 44.3495 57.0903V66.351C44.3495 69.0553 43.7737 71.112 42.6185 72.5172C41.4633 73.9224 39.5581 74.6269 36.9068 74.6269M35.9221 70.7597C36.1948 70.8847 36.5205 70.9491 36.9068 70.9491C37.2932 70.9491 37.6189 70.8885 37.8992 70.7597C38.1757 70.6347 38.3954 70.4757 38.5506 70.2825C38.7059 70.0893 38.8309 69.8393 38.9218 69.525C39.0127 69.2106 39.0695 68.9114 39.0961 68.6235C39.1226 68.3357 39.1339 67.991 39.1339 67.5857V55.8404C39.1339 55.4351 39.1226 55.0904 39.0961 54.8026C39.0695 54.5147 39.0127 54.2193 38.9218 53.9163C38.8309 53.6133 38.7059 53.3709 38.5506 53.1815C38.3954 52.9959 38.1757 52.8406 37.8992 52.7194C37.6227 52.5982 37.2932 52.5376 36.9068 52.5376C36.5205 52.5376 36.1948 52.5982 35.9221 52.7194C35.6493 52.8406 35.4372 52.9959 35.2857 53.1815C35.1342 53.3671 35.0168 53.6171 34.9297 53.9239C34.8426 54.2306 34.7896 54.5261 34.763 54.8102C34.7365 55.0942 34.7252 55.4351 34.7252 55.8404V67.5857C34.7252 67.991 34.7365 68.3357 34.763 68.6235C34.7896 68.9114 34.8426 69.2106 34.9297 69.525C35.0168 69.8393 35.1342 70.0893 35.2857 70.2825C35.4372 70.4757 35.6493 70.6347 35.9221 70.7597Z" fill="#606060"/>
<path d="M54.5918 74.2976V49.2085H59.7088V59.4994H64.1252V49.2085H69.2422V74.2976H64.1252V63.1431H59.7088V74.2976H54.5918Z" fill="#606060"/>
<path d="M78.6151 74.2974L83.5201 49.2046H89.1181L94.0079 74.2974H89.2696L88.3455 68.7448H84.3647L83.4405 74.2974H78.6113H78.6151ZM84.8495 65.5822H87.8303L86.3342 55.5943L84.8495 65.5822Z" fill="#606060"/>
<path d="M104.943 74.2976V52.9734H100.932V49.2085H113.991V52.9734H110.041V74.2976H104.943Z" fill="#606060"/>
<path d="M122.885 74.2976V49.2085H127.983V59.7229L132.539 49.2085H137.471L132.767 60.4955L137.819 74.2976H132.661L128.695 62.8135L127.983 64.0218V74.2976H122.885Z" fill="#606060"/>
<path d="M156.497 19.9378L155.13 20.9264L153.763 19.9378H154.793C154.793 19.9378 154.475 19.1841 154.834 19.1008C154.834 19.1008 154.414 18.4076 154.725 18.3205C154.725 18.3205 154.263 17.7751 154.766 17.5251C154.766 17.5251 154.406 16.9153 154.789 16.7297C154.789 16.7297 154.346 16.0177 154.789 15.8927C154.789 15.8927 154.41 15.1996 154.812 15.0973V13.1694C154.812 13.1694 154.289 12.8475 154.452 14.5935L154.327 14.7185L154.369 15.2223C154.369 15.2223 153.906 14.9874 154.077 14.6541L153.759 14.7791C153.759 14.7791 153.634 14.5291 153.759 14.0254C153.759 14.0254 153.698 13.9004 153.577 14.1921C153.577 14.1921 152.956 13.6883 153.607 13.0179V12.8702C153.607 12.8702 153.312 12.5104 153.884 12.2414C153.884 12.2414 154.244 11.715 153.577 11.696C153.577 11.696 153.414 12.3248 153.206 12.3248C153.206 12.3248 153.183 12.7869 152.96 12.7869C152.96 12.7869 152.99 13.2603 152.668 13.3739C152.668 13.3739 152.751 13.711 152.596 13.7527C152.596 13.7527 152.566 14.0443 152.668 14.1011C152.668 14.1011 151.926 13.4951 152.319 12.4876L152.782 11.5369C152.782 11.5369 152.907 11.2567 152.433 11.34L152.403 11.6619C152.403 11.6619 152.27 11.8703 152.206 11.6089C152.206 11.6089 151.899 11.3703 151.929 12.1013L151.982 12.5104C151.982 12.5104 151.869 12.73 151.774 12.374C151.774 12.374 151.27 12.3854 151.774 13.355C151.774 13.355 150.835 12.6429 151.426 11.6165L152.619 10.3401C152.619 10.3401 152.566 9.80601 151.71 10.2151C151.71 10.2151 151.463 10.3514 151.236 10.6052C151.236 10.6052 151.657 9.4121 152.801 9.23409H153.615C153.615 9.23409 153.895 8.56368 152.717 8.88563C152.717 8.88563 152.52 7.9766 153.71 8.19628L154.505 8.88563L154.577 8.89699V8.02963L155.054 7.52588L155.618 8.01827V8.90078L156.433 8.18871C156.433 8.18871 157.543 7.89706 157.584 8.83639C157.584 8.83639 156.38 8.54474 156.562 9.22651H157.584C157.584 9.22651 158.777 9.34014 159.069 10.5257C159.069 10.5257 158.243 9.69996 157.584 10.2189L158.997 11.6733C158.997 11.6733 159.542 12.5558 158.675 13.3133C158.675 13.3133 159.054 12.499 158.603 12.321C158.603 12.321 158.508 12.2907 158.395 12.499C158.395 12.499 158.52 11.768 158.281 11.6013C158.281 11.6013 158.061 11.5066 157.933 11.715C157.933 11.715 157.963 11.2226 157.471 11.3665C157.471 11.3665 157.418 11.6468 157.944 12.3892C157.944 12.3892 158.395 13.5216 157.694 14.086C157.694 14.086 157.766 13.355 157.357 13.1467C157.357 13.1467 157.535 12.7263 157.107 12.6013C157.107 12.6013 157.243 12.4043 156.868 12.2225C156.868 12.2225 156.702 12.1505 156.732 11.8324C156.732 11.8324 156.3 11.4688 156.312 12.0975C156.312 12.0975 156.929 12.571 156.618 12.8399C156.618 12.8399 157.266 13.427 156.857 13.8057C156.857 13.8057 156.952 14.3511 156.618 14.1277C156.618 14.1277 156.421 13.7944 156.463 14.4648C156.463 14.4648 156.671 14.8965 156.243 14.7147C156.243 14.7147 156.202 15.0935 155.937 15.2374V14.7147H155.812V13.5406C155.812 13.5406 155.853 13.1618 155.448 13.2035V15.0253C155.448 15.0253 155.812 15.2033 155.459 15.8813C155.459 15.8813 155.88 15.9646 155.471 16.6957C155.471 16.6957 155.85 16.779 155.501 17.491C155.501 17.491 155.993 17.5214 155.573 18.3584C155.573 18.3584 155.937 18.3584 155.459 19.1008C155.459 19.1008 155.88 19.0591 155.501 19.8962L156.497 19.9454V19.9378Z" fill="#006432"/>
<path d="M159.571 24.131L159.098 24.5098C158.303 24.8469 157.488 24.059 157.488 24.059C157.197 23.8204 157.685 23.6803 157.685 23.6803C158.416 23.4151 157.822 22.9796 157.822 22.9796C157.11 22.8546 157.329 23.4 157.329 23.4C157.496 23.8091 157.106 23.7485 157.106 23.7485L155.769 22.4834C156.594 21.6918 158.25 20.1881 159.549 19.548C159.549 19.548 160.742 18.6806 164.132 18.5405C164.132 18.5405 161.401 17.3057 158.469 19.2829C158.469 19.2829 156.155 20.7563 155.235 21.8471L155.197 21.8812L155.163 21.8471C154.239 20.7563 151.928 19.2829 151.928 19.2829C149 17.3057 146.266 18.5405 146.266 18.5405C149.656 18.6769 150.849 19.548 150.849 19.548C152.148 20.1957 153.807 21.6918 154.629 22.4834L153.292 23.7485C153.292 23.7485 152.901 23.8015 153.072 23.4C153.072 23.4 153.292 22.8546 152.58 22.9796C152.58 22.9796 151.992 23.4114 152.716 23.6803C152.716 23.6803 153.208 23.8166 152.913 24.059C152.913 24.059 152.099 24.8431 151.299 24.5098L150.826 24.131C150.826 24.131 150.137 23.881 150.03 24.5931C150.03 24.5931 150.595 26.0362 152.451 25.3468C152.451 25.3468 153.163 25.1082 153.686 24.4795L153.951 24.7181C153.951 24.7181 153.92 25.2635 154.371 25.2938C154.371 25.2938 154.678 25.2408 154.663 24.8431C154.663 24.8431 154.579 24.5363 154.129 24.506L153.909 24.309C153.909 24.309 154.754 23.5288 155.189 23.044C155.625 23.5288 156.473 24.309 156.473 24.309L156.25 24.506C155.799 24.5363 155.716 24.8431 155.716 24.8431C155.704 25.2332 156.007 25.2938 156.007 25.2938C156.458 25.2635 156.428 24.7181 156.428 24.7181L156.693 24.4795C157.208 25.1082 157.928 25.3468 157.928 25.3468C159.791 26.0362 160.348 24.5931 160.348 24.5931C160.246 23.881 159.564 24.131 159.564 24.131" fill="#006432"/>
<path d="M150.168 30.8878H149.85C149.793 30.8878 149.74 30.8764 149.691 30.8499C149.596 30.8045 149.52 30.7173 149.452 30.5923C149.365 30.4219 149.308 30.1871 149.282 29.8916C149.172 30.028 149.085 30.1227 149.024 30.1795C148.937 30.2628 148.861 30.3045 148.801 30.3045C148.77 30.3045 148.733 30.3007 148.683 30.2893L148.388 30.2325C148.263 30.206 148.183 30.1871 148.157 30.1757C148.127 30.1644 148.115 30.1454 148.115 30.1151C148.115 30.0734 148.172 29.9333 148.282 29.7023C148.392 29.4712 148.475 29.3273 148.524 29.2743C148.566 29.2288 148.634 29.1758 148.74 29.1038C148.801 29.0622 148.888 29.0091 149.002 28.941L149.13 28.8652C149.127 28.8425 149.123 28.8198 149.119 28.797C149.119 28.7743 149.119 28.7516 149.119 28.7326C149.119 28.672 149.134 28.5963 149.161 28.5016C149.187 28.4069 149.24 28.2933 149.312 28.1569L149.543 29.6644C149.581 29.8992 149.63 30.0621 149.687 30.1454C149.725 30.1984 149.778 30.2287 149.846 30.2287H150.164V30.8878H150.168ZM149.611 27.4979L149.346 27.9486L149.002 27.7554L148.808 28.138L148.358 27.8918L148.608 27.4676L148.964 27.6456L149.176 27.2744L149.608 27.4979H149.611ZM149.229 29.5205L149.18 29.2288C149.127 29.2515 149.089 29.2743 149.058 29.2856C148.971 29.3311 148.899 29.3765 148.846 29.4182C148.808 29.4485 148.774 29.4788 148.748 29.5091C148.714 29.5432 148.699 29.5697 148.699 29.5886C148.699 29.6114 148.729 29.6303 148.782 29.6417C148.839 29.653 148.895 29.6606 148.949 29.6606C148.983 29.6606 149.02 29.6492 149.058 29.6303C149.096 29.6114 149.153 29.5735 149.221 29.5205" fill="#006432"/>
<path d="M151.511 30.8878H150V30.2287H151.273C151.254 30.1189 151.223 30.028 151.174 29.9523C151.151 29.9106 151.095 29.8386 151.004 29.7364L151.197 29.1606C151.318 29.297 151.401 29.4409 151.443 29.5924C151.489 29.7401 151.511 29.9636 151.511 30.259V30.8916V30.8878ZM151.473 31.312L151.208 31.8044L150.864 31.6112L150.67 31.9938L150.22 31.7476L150.47 31.2779L150.826 31.4559L151.03 31.0658L151.47 31.312H151.473Z" fill="#006432"/>
<path d="M153.209 30.8878H152.114C152.008 30.8878 151.925 30.8651 151.872 30.8196C151.804 30.7666 151.766 30.6757 151.766 30.5507C151.766 30.4787 151.769 30.403 151.777 30.3197C151.785 30.2363 151.796 30.153 151.811 30.0697H151.902C151.913 30.1227 151.944 30.1606 151.989 30.1871C152.035 30.2136 152.088 30.225 152.148 30.225H152.978C152.94 29.9901 152.875 29.8008 152.784 29.6568C152.709 29.5394 152.603 29.4372 152.466 29.3538L152.641 28.6001C152.849 28.7554 152.997 28.9561 153.084 29.2061C153.163 29.4334 153.205 29.7364 153.205 30.1113V30.8878H153.209Z" fill="#006432"/>
<path d="M155.44 30.7213C155.44 30.9978 155.323 31.2705 155.088 31.5433C154.853 31.8122 154.622 31.9485 154.391 31.9485C154.259 31.9485 154.111 31.9069 153.952 31.8198C153.793 31.7364 153.55 31.566 153.221 31.316L153.323 31.1759C153.497 31.2933 153.641 31.369 153.751 31.4069C153.842 31.441 153.948 31.4561 154.062 31.4561C154.217 31.4561 154.372 31.4107 154.527 31.3236C154.709 31.2213 154.895 31.0547 155.088 30.8236C155.02 30.835 154.963 30.8388 154.918 30.8388C154.758 30.8388 154.63 30.7857 154.535 30.6835C154.44 30.5812 154.395 30.4373 154.395 30.2593C154.395 30.0169 154.452 29.7858 154.562 29.5623C154.683 29.3199 154.819 29.1987 154.974 29.1987C155.103 29.1987 155.213 29.2858 155.304 29.4639C155.395 29.6381 155.44 29.8502 155.44 30.1002V30.7251V30.7213ZM155.149 30.229C155.103 29.9714 155.012 29.8388 154.872 29.8388C154.823 29.8388 154.781 29.8578 154.751 29.8994C154.721 29.9373 154.705 29.9828 154.705 30.0282C154.705 30.085 154.736 30.1343 154.8 30.1721C154.865 30.21 154.948 30.229 155.054 30.229H155.145H155.149Z" fill="#006432"/>
<path d="M157.224 30.8877H156.864C156.735 30.8877 156.625 30.8612 156.527 30.812C156.428 30.7589 156.353 30.6756 156.292 30.562C156.186 30.6908 156.05 30.7817 155.883 30.8347C155.773 30.8688 155.652 30.8877 155.519 30.8877H155.266V30.2287H155.519C155.652 30.2287 155.747 30.2211 155.8 30.2097C155.853 30.1946 155.925 30.1643 156.019 30.1151C155.97 30.0204 155.928 29.9522 155.894 29.9105C155.849 29.8613 155.807 29.8348 155.758 29.8348C155.739 29.8348 155.724 29.8423 155.709 29.8537C155.694 29.8651 155.675 29.8878 155.656 29.9219L155.55 29.9067C155.55 29.6151 155.599 29.4068 155.701 29.2818C155.803 29.1568 155.963 29.0962 156.178 29.0962C156.394 29.0962 156.58 29.1416 156.705 29.2288C156.834 29.3159 156.898 29.4371 156.898 29.5886C156.898 29.6719 156.879 29.7477 156.849 29.8234C156.815 29.8992 156.75 30.0014 156.656 30.1302C156.678 30.1605 156.709 30.1832 156.747 30.2022C156.784 30.2211 156.822 30.2287 156.856 30.2287H157.216V30.8877H157.224Z" fill="#006432"/>
<path d="M160.238 30.8881C160.056 30.8881 159.909 30.8767 159.787 30.8502C159.666 30.8237 159.553 30.782 159.435 30.7252C159.34 30.7896 159.257 30.835 159.185 30.8578C159.113 30.8805 159.003 30.8881 158.856 30.8881H158.462C158.352 30.8881 158.269 30.8616 158.204 30.8047C158.14 30.7479 158.083 30.6532 158.034 30.5245C157.947 30.6608 157.844 30.7555 157.735 30.8161C157.64 30.8653 157.53 30.8919 157.397 30.8919H157.053V30.2328H157.397C157.568 30.2328 157.708 30.1874 157.822 30.0889C157.969 29.9639 158.041 29.7745 158.041 29.5245L158.2 29.5473C158.2 29.6003 158.193 29.6571 158.189 29.7253C158.189 29.7935 158.185 29.8654 158.185 29.945C158.185 30.0245 158.212 30.0965 158.269 30.1495C158.325 30.2025 158.39 30.2328 158.462 30.2328H158.761C158.958 30.2328 159.098 30.2063 159.181 30.1495C159.284 30.0851 159.333 29.9601 159.333 29.7783C159.333 29.7404 159.344 29.7063 159.371 29.676C159.386 29.6571 159.416 29.6306 159.462 29.5965L159.553 29.5245C159.553 29.5548 159.56 29.5965 159.56 29.6495C159.56 29.7026 159.56 29.7366 159.56 29.7518C159.56 29.8389 159.549 29.9563 159.522 30.104C159.583 30.1343 159.647 30.1571 159.723 30.1798C159.799 30.1987 159.875 30.2177 159.958 30.229C159.958 30.176 159.939 30.104 159.897 30.0169C159.856 29.9298 159.837 29.873 159.837 29.8389C159.837 29.7972 159.844 29.7632 159.856 29.7404C159.856 29.7329 159.874 29.7063 159.909 29.6647L160.113 29.3882C160.155 29.4904 160.189 29.5814 160.208 29.6647C160.227 29.748 160.234 29.8503 160.234 29.9753V30.8881H160.238Z" fill="#006432"/>
<path d="M161.398 30.8878H160.068V30.2288H161.106L160.815 28.5888L160.659 28.4865C160.659 28.3918 160.674 28.2971 160.705 28.1986C160.743 28.0774 160.803 27.9297 160.894 27.7593L161.004 27.8161C161.004 27.8161 161.004 27.8502 160.996 27.8918C160.996 27.9449 161.03 27.9979 161.099 28.0471C161.159 28.0926 161.254 28.1418 161.383 28.1986C161.368 28.3009 161.345 28.4032 161.318 28.5016C161.292 28.6001 161.258 28.6872 161.224 28.7668L161.136 28.7327L161.402 30.2288V30.8878H161.398Z" fill="#006432"/>
<path d="M162.291 30.1832C162.291 30.3271 162.272 30.4559 162.242 30.5771C162.208 30.6945 162.143 30.8536 162.045 31.0543L161.901 30.9975C161.939 30.793 161.958 30.6225 161.958 30.4937C161.958 30.3953 161.95 30.2513 161.935 30.062C161.92 29.8726 161.897 29.6832 161.874 29.4976C161.852 29.312 161.81 29.0885 161.757 28.831C161.738 28.7401 161.727 28.6795 161.727 28.6454C161.727 28.5962 161.753 28.509 161.802 28.3916C161.852 28.2704 161.924 28.1265 162.014 27.9561L162.158 28.8121C162.211 29.1378 162.249 29.4181 162.268 29.6567C162.283 29.8385 162.291 30.0165 162.291 30.1869" fill="#006432"/>
<path d="M152.811 42.6141V36.6069H154.023V39.2772L156.473 36.6069H158.106L155.844 38.9477L158.227 42.6141H156.659L155.007 39.7961L154.023 40.7998V42.6141H152.811Z" fill="#006432"/>
<path d="M152.947 50.7347L154.129 50.6211C154.201 51.015 154.345 51.3066 154.561 51.496C154.777 51.6816 155.072 51.7763 155.44 51.7763C155.83 51.7763 156.125 51.693 156.322 51.5301C156.519 51.3634 156.621 51.1703 156.621 50.9506C156.621 50.8067 156.58 50.6893 156.496 50.587C156.413 50.4847 156.265 50.4014 156.061 50.3256C155.917 50.2764 155.595 50.1893 155.087 50.0643C154.436 49.9014 153.981 49.7045 153.72 49.4696C153.353 49.1401 153.167 48.7349 153.167 48.2614C153.167 47.9546 153.254 47.6705 153.428 47.4016C153.603 47.1365 153.853 46.932 154.178 46.7918C154.504 46.6517 154.898 46.5835 155.36 46.5835C156.114 46.5835 156.682 46.7502 157.064 47.0797C157.447 47.4092 157.648 47.8523 157.667 48.4015L156.455 48.4546C156.402 48.1478 156.292 47.9243 156.121 47.788C155.951 47.6516 155.693 47.5834 155.352 47.5834C155.012 47.5834 154.724 47.6554 154.527 47.7993C154.398 47.8902 154.334 48.0152 154.334 48.1705C154.334 48.3144 154.394 48.4356 154.515 48.5341C154.667 48.6629 155.038 48.7955 155.629 48.9356C156.22 49.0757 156.655 49.2197 156.939 49.3674C157.223 49.5151 157.443 49.7196 157.602 49.9772C157.761 50.2347 157.841 50.5529 157.841 50.9354C157.841 51.2801 157.746 51.6021 157.553 51.9013C157.36 52.2005 157.091 52.424 156.742 52.5717C156.394 52.7194 155.955 52.7914 155.436 52.7914C154.674 52.7914 154.091 52.6171 153.686 52.2649C153.277 51.9126 153.034 51.4013 152.955 50.7309" fill="#006432"/>
<path d="M158.211 62.7605H156.893L156.367 61.397H153.966L153.469 62.7605H152.182L154.522 56.7534H155.806L158.211 62.7605ZM155.977 60.3819L155.147 58.151L154.337 60.3819H155.977Z" fill="#006432"/>
<path d="M158.973 70.8127C158.973 72.8921 157.287 74.5776 155.208 74.5776C153.129 74.5776 151.439 72.8921 151.439 70.8127C151.439 68.7333 153.125 67.0479 155.208 67.0479C157.291 67.0479 158.973 68.7333 158.973 70.8127Z" fill="#006432"/>
</svg>
